
		<svg xmlns="http://www.w3.org/2000/svg" xmlns:xlink="http://www.w3.org/1999/xlink" version="1.1" width="3010.6685633001416" height="1901.1379800853483">
			
			<g transform="scale(0.5334281650071123) translate(10, 10)">
				

<g id="SvgjsG1052" transform="matrix(1,0,0,1,0,0)">
</g>
<title xmlns="http://www.w3.org/2000/svg">Untitled-1</title>
<g id="1531171293870" rel="symbol">
	<path class="st0" d="M2376.3,1450.8l-508.1-293.6c-26.9-15.5-60.3-15.5-87.3,0l-508.3,293.3c-26.9,15.6-43.6,44.6-43.5,75.7v586.9   c0,31,16.7,59.9,43.5,75.4l508.3,293.6h0c13.5,7.8,28.5,11.7,43.6,11.7c15.1,0,30.2-3.9,43.6-11.7l508.1-293.3   c26.9-15.6,43.6-44.6,43.5-75.7v-586.6C2419.9,1495.4,2403.2,1466.4,2376.3,1450.8z M2406.2,2113.1c0.1,26.2-14,50.7-36.7,63.9   l-508.1,293.3c-22.7,13.1-50.9,13.1-73.6,0h0l-508.3-293.6c-22.6-13.1-36.7-37.5-36.7-63.6v-586.9c-0.1-26.2,14-50.7,36.7-63.9   l508.3-293.3c22.7-13.1,50.9-13.1,73.6,0l508.1,293.6c22.7,13.2,36.8,37.6,36.7,63.9V2113.1z" style="fill: #fff;"/>
	<path class="st0" d="M2145.6,1768c-15.2,0-27.9,5.9-38,16.1c-12.7-5.9-27.9-10.1-43.9-13.5c15.2-50.7,22.8-98,16.1-134.3   c3.4-1.7,5.9-4.2,8.4-6.8c21.1-21.1,21.1-54.9,0-76c-10.1-10.1-24.5-16.1-38-16.1c-13.5,0-27,5.1-38,16.1   c-3.4,3.4-5.9,6.8-7.6,10.1c-37.2-6.8-82,0-125.9,11.8c-4.2-17.7-9.3-33.8-16.9-46.5c7.6-9.3,11.8-20.3,11.8-33   c0-29.6-23.7-53.2-53.2-53.2c-24.5,0-44.8,16.1-51.5,38c-48.2,5.1-103.1,36.3-144.5,70.1c-21.1-17.7-52.4-16.9-72.7,2.5   c-21.1,21.1-21.1,54.9,0,75.2c-27,40.6-46.5,88.7-55.8,139.4c-0.8,0-0.8,0-1.7,0c-29.6,0-53.2,23.7-53.2,53.2   c0,28.7,22.8,52.4,51.5,53.2c6.8,52.4,25.3,101.4,54.9,143.6c-16.9,21.1-15.2,51.5,4.2,71s49.9,21.1,71,4.2   c43.9,31.3,93.8,49,143.6,55.8c0.8,28.7,24.5,51.5,53.2,51.5c29.6,0,53.2-23.7,53.2-53.2c0,0,0,0,0-0.8   c51.5-9.3,100.5-28.7,141.1-54.9c10.1,9.3,22.8,14.4,36.3,14.4c13.5,0,27-5.1,38-16.1c19.4-19.4,21.1-49.9,4.2-71   c51.5-64.2,66.7-112.4,68.4-146.2c22-6.8,38-27,38-51.5C2198.9,1791.6,2175.2,1768,2145.6,1768z M2018.1,1559.3   c8.4-8.4,19.4-13.5,32.1-13.5c11.8,0,23.7,5.1,32.1,13.5s13.5,19.4,13.5,32.1c0,11.8-5.1,23.7-13.5,32.1s-19.4,13.5-32.1,13.5   c-11.8,0-23.7-5.1-32.1-13.5C2000.3,1605.8,2000.3,1577,2018.1,1559.3z M1881.2,1584.6c44.8-12.7,86.2-18.6,119.1-13.5   c-7.6,19.4-3.4,42.2,11.8,57.5c10.1,10.1,24.5,16.1,38,16.1c7.6,0,14.4-1.7,21.1-4.2c5.1,33.8-1.7,79.4-16.9,128.4   c-49-7.6-110.7-4.2-174.1,3.4C1888.8,1702.9,1891.3,1636.2,1881.2,1584.6z M1871,1773.1c-60.8,7.6-123.4,19.4-179.1,30.4   c-58.3,11-108.1,20.3-144.5,23.7c0-1.7,0-4.2,0-5.9c0-17.7-8.4-33-22-43.1c64.2-61.7,217.1-153.8,345.6-191.8   C1881.2,1637.9,1878.6,1704.6,1871,1773.1z M1558.4,1634.5c21.1,15.2,50.7,13.5,69.3-5.1c20.3-20.3,21.1-51.5,2.5-72.7   c39.7-32.1,91.3-61.7,136.9-67.6c0,2.5-0.8,4.2-0.8,6.8c0,29.6,23.7,53.2,53.2,53.2c13.5,0,26.2-5.1,35.5-13.5   c5.9,12.7,11,26.2,14.4,42.2c-48.2,14.4-94.6,34.6-126.7,49.9c-88.7,43.1-178.3,101.4-223.9,145.3c-4.2-2.5-9.3-4.2-14.4-5.1   C1513.6,1719.8,1532.2,1674.2,1558.4,1634.5z M1449.4,1821.2c0-24.5,20.3-44.8,44.8-44.8s44.8,20.3,44.8,44.8c0,3.4,0,5.9-0.8,9.3   v0.8c-4.2,20.3-22.8,35.5-43.9,35.5C1469.7,1866,1449.4,1845.7,1449.4,1821.2z M1816.1,2093.3c-25.3,2.5-44.8,22-48.2,46.5   c-49-5.9-96.3-22.8-138.6-52.4c19.4-21.1,18.6-53.2-1.7-73.5c-20.3-20.3-53.2-21.1-73.5-1.7c-28.7-40.6-46.5-87-52.4-137.7   c21.1-2.5,38.9-17.7,44.8-38c36.3-2.5,87.9-12.7,147.9-23.7c54.9-10.1,116.6-22,176.6-30.4c-9.3,76-24.5,153.8-37.2,216.3   C1825.4,2040.1,1819.5,2070.5,1816.1,2093.3z M1823.7,2093.3c4.2-26.2,11-60,17.7-92.9c12.7-65.9,28.7-143.6,38-219.7   c63.4-8.4,124.2-11.8,172.4-4.2c-40.6,125-129.3,273.8-189.3,338C1853.3,2102.6,1838.9,2094.1,1823.7,2093.3z M2095.8,2051.9   c0,12.7-5.1,22.8-14.4,31.3c-8.4,8.4-19.4,13.5-32.1,13.5c-11.8,0-22.8-4.2-30.4-12.7c0-0.8,0-0.8-0.8-1.7   c-0.8-0.8-1.7-0.8-1.7-1.7c-15.2-16.9-15.2-43.9,1.7-60.8c8.4-8.4,19.4-13.5,32.1-13.5c11.8,0,23.7,5.1,32.1,13.5   C2090.7,2028.2,2095.8,2039.2,2095.8,2051.9z M2086.5,2012.2c-10.1-9.3-22.8-14.4-36.3-14.4c-13.5,0-27,5.1-38,16.1   c-19.4,19.4-21.1,49.9-4.2,71c-38.9,26.2-86.2,44.8-135.2,53.2c-0.8-5.9-2.5-11.8-5.9-16.9c56.6-60,152.1-212.9,193.5-343   c15.2,2.5,28.7,6.8,41.4,11.8c-5.9,8.4-10.1,19.4-10.1,31.3c0,29.6,23.7,53.2,53.2,53.2c2.5,0,5.1,0,6.8-0.8   C2149,1919.2,2119.4,1970.8,2086.5,2012.2z" style="fill: #fff;"/>
</g>
<g id="1531171291705" rel="main_text">
	<path class="st0" d="M3064.4,1683.9V1643h-58.1v388.9h58.1v-225.5c0-51.1,51.9-106.8,103.7-111.6l-5.5-58.1   C3128,1640.7,3092.7,1657.2,3064.4,1683.9z" style="fill: #fff;"/>
	<path class="st0" d="M2922.8,1782.1c0-58.1-17.3-100.6-51.9-124.9c-64.4-46.4-165-11.8-213.7,3.9c-5.5,2.4-10.2,3.9-13.4,4.7   l16.5,55.8c4.7-1.6,9.4-3.1,15.7-5.5c21.2-7.1,53.4-18.1,84.9-22c34.6-4.7,59.7-1.6,76.2,10.2c18.1,13.4,27.5,39.3,27.5,77.8v6.3   c-7.1-4.7-14.1-10.2-22-14.1c-25.1-13.4-53.4-20.4-81.7-20.4c-30.6,0.8-60.5,10.2-85.6,26.7c-33.8,22-55,56.6-61.3,96.6   c-4.7,36.1,3.1,73.9,22.8,103.7c18.1,28.3,44,47.9,74.6,55c7.1,1.6,15.7,2.4,25.9,2.4c21.2,0,49.5-5.5,80.9-25.1   c25.1-15.7,46.4-21.2,58.1-14.9c10.2,5.5,15.7,21.2,15.7,33h57.4c0-21.2-7.1-49.5-26.7-69.9V1782.1z M2862.2,1937.6   c-20.4,0-45.6,7.1-77,25.9c-60.5,37.7-91.9,3.1-102.1-13.4c-23.6-36.9-22-93.5,21.2-121c33-21.2,73.1-22.8,108.4-3.9   c30.6,16.5,49.5,45.6,49.5,77V1937.6z" style="fill: #fff;"/>
	<path class="st0" d="M4548.8,1668.1c-39.3-35.4-90.3-34.6-110-32.2c-34.6,3.1-69.9,20.4-98.2,47.1v-40.9h-58.1v388.9h58.1v-225.5   c0-51.9,51.1-106.8,103.7-112.3c9.4-0.8,43.2-2.4,66,18.1c15.7,14.9,23.6,38.5,23.6,71.5v248.3h58.1v-248.3   C4592,1733.4,4577.8,1694.9,4548.8,1668.1z" style="fill: #fff;"/>
	<path class="st0" d="M4143,1646.9c-21.2-9.4-47.1-14.9-73.9-14.9s-53.4,5.5-73.9,14.9c-22.8,11-41.6,24.4-55.8,44   c-28.3,34.6-41.6,83.3-41.6,143c0,60.5,13.4,108.4,41.6,143c14.1,19.6,33,33.8,55.8,44c20.4,9.4,47.1,14.9,73.9,14.9   s52.6-5.5,73.9-14.9c22.8-10.2,40.9-24.4,55-44c28.3-34.6,40.9-82.5,40.9-143c0-59.7-12.6-108.4-40.9-143   C4183.9,1671.3,4165.8,1657.9,4143,1646.9z M4069.2,1977.7c-74.6,0-113.1-48.7-113.1-143.8s38.5-143.8,113.1-143.8   c73.9,0,113.1,48.7,113.1,143.8S4143,1977.7,4069.2,1977.7z" style="fill: #fff;"/>
	<path class="st0" d="M3289.5,1704.3c16.5-11.8,41.6-14.9,75.4-10.2c32.2,4.7,64.4,14.9,85.6,22.8c5.5,1.6,11,3.1,14.9,4.7l17.3-55   c-3.1-1.6-8.6-3.1-14.1-4.7c-47.9-16.5-148.5-50.3-212.9-4.7c-34.6,25.1-51.9,66.8-51.9,124.9v108.4c0,58.9,17.3,100.6,51.9,124.9   c23.6,17.3,52.6,23.6,82.5,23.6c49.5,0,100.6-17.3,130.4-27.5c5.5-2.4,11-3.9,14.1-4.7l-17.3-55c-3.9,0.8-9.4,3.1-14.9,4.7   c-21.2,7.1-53.4,18.1-85.6,22.8c-33.8,4.7-58.9,0.8-75.4-11c-18.9-12.6-27.5-39.3-27.5-77.8v-108.4   C3262,1743.6,3270.6,1717.6,3289.5,1704.3z" style="fill: #fff;"/>
	<path class="st0" d="M3808.7,1668.1c-39.3-35.4-90.3-34.6-110-32.2c-34.6,3.1-69.9,20.4-98.2,46.4v-180.7h-58.1v285.2v244.3h58.1   v-225.5c0-51.9,51.1-106.8,103.7-112.3c9.4-0.8,43.2-2.4,66,18.1c15.7,14.9,23.6,38.5,23.6,71.5v248.3h58.1v-248.3   C3851.9,1732.6,3837.7,1694.1,3808.7,1668.1z" style="fill: #fff;"/>
</g>

			</g>
		</svg>
	